<?xml version="1.0" standalone="no"?>
<!DOCTYPE svg PUBLIC "-//W3C//DTD SVG 20010904//EN"
 "http://www.w3.org/TR/2001/REC-SVG-20010904/DTD/svg10.dtd">
<svg version="1.0" xmlns="http://www.w3.org/2000/svg"
 width="500.000000pt" height="500.000000pt" viewBox="0 0 500.000000 500.000000"
 preserveAspectRatio="xMidYMid meet">

<g transform="translate(0.000000,500.000000) scale(0.100000,-0.100000)"
fill="#000000" stroke="none">
<path d="M760 2500 l0 -480 1740 0 1740 0 0 480 0 480 -1740 0 -1740 0 0 -480z
m3450 0 l0 -450 -1715 0 -1715 0 0 450 0 450 1715 0 1715 0 0 -450z"/>
<path d="M850 2500 l0 -390 825 0 825 0 0 390 0 390 -825 0 -825 0 0 -390z
m780 125 c0 -12 -14 -15 -65 -15 l-65 0 0 -40 0 -40 60 0 c47 0 60 -3 60 -15
0 -12 -13 -15 -60 -15 l-60 0 0 -45 0 -45 65 0 c51 0 65 -3 65 -15 0 -12 -16
-15 -80 -15 l-80 0 0 130 0 130 80 0 c64 0 80 -3 80 -15z m260 4 c0 -7 -32
-58 -71 -115 l-70 -104 70 0 c56 0 71 -3 71 -15 0 -12 -17 -15 -90 -15 -75 0
-90 3 -90 16 0 8 29 57 65 109 36 51 65 96 65 99 0 3 -29 6 -65 6 -51 0 -65 3
-65 15 0 12 17 15 90 15 61 0 90 -4 90 -11z"/>
<path d="M2740 2510 l0 -130 40 0 39 0 3 63 3 62 20 -32 c26 -44 62 -45 90 -3
11 16 23 30 28 30 4 0 7 -27 7 -60 l0 -60 35 0 35 0 0 130 0 130 -33 0 c-28 0
-37 -7 -72 -60 -22 -33 -42 -59 -45 -59 -3 0 -23 26 -45 59 -35 53 -44 60 -72
60 l-33 0 0 -130z"/>
<path d="M3100 2510 l0 -130 90 0 90 0 0 30 c0 30 -1 30 -55 30 -48 0 -55 2
-55 20 0 17 7 20 45 20 43 0 45 1 45 30 0 29 -2 30 -45 30 -38 0 -45 3 -45 20
0 17 7 20 50 20 49 0 50 1 50 30 l0 30 -85 0 -85 0 0 -130z"/>
<path d="M3396 2632 c-6 -10 -96 -242 -96 -248 0 -2 18 -4 39 -4 31 0 41 4 46
20 5 16 15 20 52 20 36 0 46 -4 50 -20 4 -16 14 -20 44 -20 22 0 39 3 39 7 0
4 -21 62 -47 130 l-48 123 -37 0 c-20 0 -39 -4 -42 -8z m64 -149 c0 -7 -12
-13 -26 -13 -20 0 -25 4 -20 16 3 9 9 28 13 42 l6 27 13 -30 c7 -16 13 -36 14
-42z"/>
<path d="M3610 2510 l0 -130 90 0 90 0 0 35 0 35 -55 0 -55 0 0 95 0 95 -35 0
-35 0 0 -130z"/>
<path d="M3820 2610 c0 -29 2 -30 45 -30 25 0 45 -4 45 -9 0 -5 -22 -37 -50
-72 -32 -41 -50 -74 -50 -91 l0 -28 105 0 105 0 0 35 0 35 -56 0 -55 0 55 71
c33 41 56 81 56 95 0 24 -1 24 -100 24 l-100 0 0 -30z"/>
</g>
</svg>
